<?xml version="1.0" ?><!-- Uploaded to: SVG Repo, www.svgrepo.com, Generator: SVG Repo Mixer Tools -->
<svg width="800px" height="800px" viewBox="0 0 512 512" data-name="Слой 1" id="Слой_1" xmlns="http://www.w3.org/2000/svg"><defs><style>.cls-1{fill:#cdccd2;}.cls-2{fill:#ffffff;}.cls-3{fill:#00c5ef;}</style></defs><title/><circle class="cls-1" cx="254" cy="253" r="207.77"/><circle class="cls-2" cx="254.13" cy="254.08" r="194.41"/><path class="cls-3" d="M353,267.68A96.67,96.67,0,0,0,245.32,161.12a61,61,0,0,0-83.43,78.64A96.85,96.85,0,0,0,160.34,257c0,53.37,43.26,96.9,96.64,96.9,5.2,0,10.34-.95,15.33-0.95h0a64.15,64.15,0,0,0,27.78,6.41A61.28,61.28,0,0,0,353,267.68ZM293.25,311.8c-21.55,11.08-49.15,3.38-49.15,3.38-1-.22-23.68-5.41-26.8-20.79-0.26-1.32-2.15-11.37,3.92-15.13,3.63-2.25,8.94-1.53,13.56,1.52,0,0,12.33,15.62,17.18,15.69s29.13,8.53,33.83-13.07c0,0,3.65-10.29-24.43-15.19s-37.77-14.85-37.77-14.85a30.29,30.29,0,0,1-6.07-30.63,33.42,33.42,0,0,1,23.88-21.84s12-4.35,22.64-3.09c0,0,32.52.78,42.22,20.52s-16.81,21.23-19.52,12.28c0,0-11.21-16.63-31.68-12.35S243,235.84,243,235.84s8.11,10.37,33.09,11.47,35.47,21,35.83,28.54S314.79,300.72,293.25,311.8Z"/></svg>