<?xml version="1.0" ?><!-- Uploaded to: SVG Repo, www.svgrepo.com, Generator: SVG Repo Mixer Tools -->
<svg width="800px" height="800px" viewBox="0 0 512 512" data-name="Слой 1" id="Слой_1" xmlns="http://www.w3.org/2000/svg"><defs><style>.cls-1{fill:#cdccd2;}.cls-2{fill:#ffffff;}.cls-3{fill:#424342;}</style></defs><title/><circle class="cls-1" cx="256" cy="256.5" r="207.77"/><circle class="cls-2" cx="256" cy="256.04" r="194.41"/><path class="cls-3" d="M360.58,219.49L256.37,249.36a2.06,2.06,0,0,1-1.14,0L151,219.49a2.06,2.06,0,0,1,0-4l104.21-30.8a2.06,2.06,0,0,1,1.17,0l104.21,30.8A2.06,2.06,0,0,1,360.58,219.49Z"/><path class="cls-3" d="M360.43,311.26l-104.06,27a2.06,2.06,0,0,1-1,0l-104.16-27a2.06,2.06,0,0,1-.11-4l22.76-7.25a2.06,2.06,0,0,1,1.11,0l80.43,19.39a2.06,2.06,0,0,0,1,0L336.71,300a2.06,2.06,0,0,1,1.11,0l22.72,7.25A2.06,2.06,0,0,1,360.43,311.26Z"/><path class="cls-3" d="M360.43,266.8l-104.06,27a2.06,2.06,0,0,1-1,0l-104.16-27a2.06,2.06,0,0,1-.11-4l22.76-7.25a2.06,2.06,0,0,1,1.11,0l80.43,19.39a2.06,2.06,0,0,0,1,0l80.38-19.39a2.06,2.06,0,0,1,1.11,0l22.72,7.25A2.06,2.06,0,0,1,360.43,266.8Z"/></svg>