<?xml version="1.0" ?><!-- Uploaded to: SVG Repo, www.svgrepo.com, Generator: SVG Repo Mixer Tools -->
<svg width="800px" height="800px" viewBox="0 0 512 512" data-name="Слой 1" id="Слой_1" xmlns="http://www.w3.org/2000/svg"><defs><style>.cls-1{fill:#cdccd2;}.cls-2{fill:#ffffff;}.cls-3{fill:#4075bc;}</style></defs><title/><circle class="cls-1" cx="257" cy="252" r="207.77"/><circle class="cls-2" cx="257" cy="252.95" r="194.41"/><path class="cls-3" d="M235.06,281.94s53,3.89,75.19-17.15c0,0,24.56-17.71,29.06-49.65,0,0,16.14,19.86-1.86,60.58a62.61,62.61,0,0,1-14,15.46C305.75,305,285.69,305,278.67,304.71H278.2c-6.42.19-11.31,8.33-14.08,14.16-2.19,15-4.38,30.13-6.57,45.13H221.89Z"/><path class="cls-3" d="M214.39,343H167.47L197,155h73.67c28.07-1,51.85,13.78,59.12,35,5,14.46.84,27.79-1.41,33.67-2.15,5.61-6.13,19.63-19.71,30.91a61,61,0,0,1-32.84,13.58,82.66,82.66,0,0,1-16.42.46c-8.55-.63-11.26-0.95-11.26-0.95-8.76-.4-11.34.27-13.14,0.94a18.73,18.73,0,0,0-6.57,4c-4.08,3.91-5.25,9.34-5.63,12C220,304,217.2,323,214.39,343Z"/></svg>