<?xml version="1.0" ?><!-- Uploaded to: SVG Repo, www.svgrepo.com, Generator: SVG Repo Mixer Tools -->
<svg width="800px" height="800px" viewBox="0 0 512 512" data-name="Слой 1" id="Слой_1" xmlns="http://www.w3.org/2000/svg"><defs><style>.cls-1{fill:#cdccd2;}.cls-2{fill:#ffffff;}.cls-3{fill:#424342;}</style></defs><title/><circle class="cls-1" cx="256" cy="257" r="207.77"/><circle class="cls-2" cx="256" cy="256.04" r="194.41"/><path class="cls-3" d="M347.62,211.36c-42.95-40.62-95.19,24.28-95.19,24.28a87.31,87.31,0,0,0-39-32,58.54,58.54,0,0,0-46.83.56c-22.25,10.24-28.3,30-29,46.52-0.85,19.4,7.2,38.3,22.34,50.46,42.94,34.48,92.53-22.82,92.53-22.82,33.77,40.67,64.42,35.51,64.42,35.51,37.68-5.58,48.46-29,50.59-48.72A64.73,64.73,0,0,0,347.62,211.36ZM187.1,283.22c-5.09-2.62-12.88-9.73-14.71-20a28.35,28.35,0,0,1,.77-12.47c2.81-9.6,10.22-16.11,15.21-18.45,12.8-6,35.2,3.35,49.23,26.79C222.38,281.37,199.94,289.79,187.1,283.22ZM332,263.11c-1.83,10.25-9.62,17.35-14.71,20-12.84,6.59-35.29-1.85-50.5-24.11,14-23.44,36.43-32.81,49.23-26.79,5,2.35,12.41,8.85,15.21,18.45A28.35,28.35,0,0,1,332,263.11Z"/></svg>