<?xml version="1.0" ?><!-- Uploaded to: SVG Repo, www.svgrepo.com, Generator: SVG Repo Mixer Tools -->
<svg width="800px" height="800px" viewBox="0 0 512 512" data-name="Слой 1" id="Слой_1" xmlns="http://www.w3.org/2000/svg"><defs><style>.cls-1{fill:#cdccd2;}.cls-2{fill:#ffffff;}.cls-3{fill:#424342;}</style></defs><title/><circle class="cls-1" cx="253.57" cy="254" r="207.77"/><circle class="cls-2" cx="254" cy="253.76" r="194.41"/><circle class="cls-3" cx="179.98" cy="240.44" r="27.02"/><circle class="cls-3" cx="246.98" cy="232.05" r="31.22"/><circle class="cls-3" cx="320.85" cy="222.73" r="34.2"/><path class="cls-3" d="M150.08,316h58.53s8.08-39.59-28.63-42.27S150.08,316,150.08,316Z"/><path class="cls-3" d="M214.88,316h64.8c0.32-1,5.36-21.44-8.3-35.86-9.34-9.86-21.46-11.08-24.45-11.24-2.5.19-15.88,1.78-25.37,13.28C209.73,296.54,214.43,315,214.88,316Z"/><path class="cls-3" d="M284.81,315.21l72.09,0.72c3.94-17.43-1.09-34.81-13.3-44.71a39.86,39.86,0,0,0-22.8-8.45c-3.31.22-16.92,1.5-27.26,12.73C278.51,291.81,284.43,313.89,284.81,315.21Z"/></svg>