<?xml version="1.0" ?><!-- Uploaded to: SVG Repo, www.svgrepo.com, Generator: SVG Repo Mixer Tools -->
<svg width="800px" height="800px" viewBox="0 0 512 512" data-name="Слой 1" id="Слой_1" xmlns="http://www.w3.org/2000/svg"><defs><style>.cls-1{fill:#cdccd2;}.cls-2{fill:#ffffff;}.cls-3{fill:#ff8133;}</style></defs><title/><circle class="cls-1" cx="255" cy="256" r="207.77"/><circle class="cls-2" cx="255" cy="256.82" r="194.41"/><path class="cls-3" d="M174,203.79a146.05,146.05,0,0,1,36.94,4.71c31.31,8.24,52.71,25.69,63.87,36.23,0,0,46.11,49.27,42.53,101.27H343S337,270.73,301.41,235.16a165.42,165.42,0,0,0-33.87-29.53c-37-24.16-74.53-27.24-93.53-27.3v25.46Z"/><path class="cls-3" d="M174,260.12V235s51.25-3.33,87.42,41.86c0,0,22.88,24.13,24.32,69.13h-25s1.38-36.59-30-64.35C230.74,281.65,208,260.12,174,260.12Z"/><circle class="cls-3" cx="200.29" cy="320.38" r="24.14"/></svg>