<?xml version="1.0" encoding="utf-8"?>
<!-- Uploaded to: SVG Repo, www.svgrepo.com, Generator: SVG Repo Mixer Tools -->
<svg width="800px" height="800px" viewBox="0 0 1024 1024" class="icon"  version="1.1" xmlns="http://www.w3.org/2000/svg"><path d="M889.344 665.088c14.336-4.608 29.696-0.512 44.544-6.656 39.936-16.896 59.392-80.896 32.768-117.248-10.752-14.848-26.624-13.312-41.472-4.096-10.24 6.144-15.36 18.432-26.112 23.552-16.384 7.68-13.312-5.12-25.6-12.288-13.312-7.68-24.576-2.048-32.256 9.728-6.144 8.704-19.456 28.672-15.36 38.912-6.656-10.752-4.608-33.28-6.656-45.056-3.072-17.408-8.704-51.712-31.744-53.248-26.112-2.048-16.896 24.576-28.16 36.864-6.144 7.168-23.04 8.192-31.232 14.336-7.168 5.12-12.8 12.288-16.384 19.968-8.192 17.92-1.024 50.688-8.192 71.168-3.072-15.36-4.608-30.72-17.408-41.984-16.384-14.336-40.448-11.776-56.832 2.048-23.04 19.968-25.088 53.76-32.256 81.408-2.048 7.168-18.432 57.344-31.744 45.056-6.144-6.144 2.56-11.264 6.656-18.432 3.584-6.656 6.656-13.824 9.216-20.992 9.728-28.672 8.704-60.416 7.168-90.112 0-3.072-3.072-27.648-1.024-29.184 2.048-2.048 9.728 1.536 13.824 2.56 12.288 3.584 25.6 6.656 38.4 5.12 21.504-2.56 41.984-16.896 45.056-39.424 1.536-10.24-4.096-17.92-5.632-27.136-5.12-5.12-4.608-9.728 0.512-14.848 1.536-7.68 6.656-10.24 14.336-8.192 9.216-2.56 21.504-1.536 30.72-2.048 7.68-0.512 15.872-6.656 15.36-15.36-1.024-15.872-8.704-18.944-16.896-30.208-16.896-22.016 12.288-35.328 23.552-52.736 18.432-28.672 14.848-61.44-12.8-81.92-5.632-4.096-14.336-2.048-18.432 2.56-4.608 4.608-8.192 8.704-12.288 13.824-1.024 1.024-19.968 23.552-19.968 19.456-0.512-12.8-16.896-20.992-26.112-10.752-21.504 23.04-43.008 46.592-65.024 69.632-3.584 4.096-10.24 14.336-15.36 16.384-3.072 1.024-4.096 2.048-4.608 3.072-0.512-0.512-2.56-2.048-6.656-3.584-20.992-8.192-26.112-34.304-16.384-51.712 13.312-23.552 35.328-41.472 48.64-65.536 11.264-20.48 23.552-45.056 26.112-69.12 1.536-14.848-0.512-31.744-12.8-41.984-9.216-8.192-13.824-3.584-11.264-15.36 2.56-10.24 17.408-22.016 24.064-31.232 24.576-35.328 31.744-79.36 3.072-114.176-5.12-6.144-16.384-5.632-21.504 0-31.232 33.792-62.976 67.584-95.744 100.352-5.632 5.632-14.848 24.064-21.504 10.752-2.048-4.608 1.536-18.432 1.024-23.552-1.024-15.872-6.144-30.72-12.8-45.056-6.656-14.336-28.672-6.656-28.672 7.68 0.512 22.016-25.6 36.352-35.84 54.784-3.584 6.656-5.632 13.312-6.656 20.48-2.048 14.336 4.608 15.872-12.288 22.016-15.36 5.632-13.824 3.072-23.552-8.192-4.096-5.12-9.216-5.632-13.824-4.608-7.168 0.512-14.336 5.12-14.336 14.848 0 27.136-6.144 66.048 6.656 91.136 6.656 13.312 18.944 23.04 26.112 36.352 8.192 15.872 10.752 33.792 15.872 51.2 4.096 13.824 9.216 26.624 16.384 39.424 5.632 10.24 23.552 51.2 1.536 25.088-20.992-24.576-14.336-63.488-33.792-87.552-11.264-13.824-27.648-19.456-43.008-8.192-15.36 10.752-19.968 29.696-45.568 18.944-12.288-5.12-20.48-13.824-34.304-15.872-28.16-3.584-112.128 24.064-66.56 61.952 9.216 7.68 20.48 6.144 30.72 10.24 18.432 6.656 32.768 24.576 27.648 45.568-6.656 27.648-37.376 41.984-32.256 73.728 9.216 61.952 109.568 32.256 146.432 57.344 14.336 9.728 29.184 24.064 40.96 36.864 14.848 16.896 16.896 29.696 17.92 51.712 0.512 16.384 0.512 32.768 0 48.64-0.512 8.192-1.024 65.536-11.264 70.144-27.136 12.288-47.616-67.584-49.664-81.92-2.56-23.552 8.704-65.024-6.656-85.504-12.288-15.872-34.304-11.264-44.544 4.608-2.56 3.584-3.072 8.704-5.12 12.288-9.216 19.456-23.552 30.208-26.112 0.512-1.536-16.384 1.024-31.744-6.656-47.104-8.192-16.896-27.648-29.184-46.592-23.552-9.728 3.072-16.896 10.752-20.48 19.968-1.024 2.048-1.536 6.144-2.56 10.24-1.024-2.048-2.56-3.584-4.096-5.632-10.24-12.8-15.36-33.792-29.184-41.984-10.24-6.144-21.504-3.072-30.72 3.072-10.752 7.168-15.36 13.312-28.672 17.408-7.168 2.56-12.8 3.072-19.456 7.68-25.088 18.944-24.064 55.296-6.144 78.336 10.752 13.824 26.112 23.04 41.984 30.208 7.68 3.584 15.36 6.144 23.04 9.216 6.144 2.56 11.264 5.12 16.896 7.68-27.136-3.584-63.488 5.632-57.344 39.936 4.608 25.088 24.576 32.768 46.08 34.304-28.16 2.048-45.568 28.16-31.232 55.296 20.992 37.888 91.648 31.232 127.488 27.648 14.336-1.536 90.624-16.384 84.992 5.632-2.56 9.216-67.072 2.56-84.48 1.024-1.536-0.512-3.072-0.512-4.608 0-2.56 0-4.608 0.512-6.656 1.536-29.696 10.752-31.232 40.96-23.04 69.12 1.536 5.12 5.632 9.728 10.752 10.752 45.568 9.216 92.16 7.68 136.192-8.704 25.6-9.216 40.448-24.576 59.904 5.632 12.8 18.944 4.608 39.424 13.824 58.368 12.288 24.064 40.96 16.384 54.784-2.048 9.216-12.288 12.288-28.16 13.824-43.52 1.536-13.824 2.56-27.648 3.584-40.96 1.024-10.24-1.536-30.208 5.632-38.4 7.168-8.192 4.096 5.12 7.168 13.312 4.096 10.752 10.752 17.92 18.432 26.624 14.848 16.384 29.696 35.328 47.104 48.128 20.992 15.36 69.632 27.648 92.672 9.728 4.608-3.584 4.608-7.68 7.68-11.264 0.512-2.048 1.024-4.096 1.024-6.144 2.048 3.072 4.608 3.072 7.68 0 9.216-5.632 16.896-11.776 16.896-23.552 0-13.312-9.216-22.016-19.968-28.16-20.992-11.776-47.616-29.184-47.616-55.808 6.144 2.56 12.8 6.144 15.36 6.144 13.312 2.56 22.528 2.56 34.816 9.216 8.192 4.608 15.36 11.264 22.528 16.896 23.04 17.408 45.568 42.496 76.8 35.84 6.656-1.536 10.752-8.192 11.264-14.848 0.512-10.752-2.56-10.752 5.632-15.36 5.12-3.072 14.848 0.512 19.456 0.512 7.68 0 15.36-1.024 22.016-4.096 17.408-8.192 25.088-26.624 18.432-45.056-14.848-38.912-70.144-30.72-102.4-46.592-8.704-4.096-20.48-9.728-27.136-16.896-7.68-8.704-8.704-5.12 1.536-8.704 13.312-4.608 38.4 0 52.224 0 21.504 0.512 42.496 1.536 64 3.072 19.968 1.536 48.128 10.24 66.56-2.56 15.872-11.264 17.408-33.792 13.824-51.712-4.608-20.48-18.432-28.16-38.912-27.648-3.584 0-10.752 2.048-15.36 1.536-19.456-3.584-4.096-16.896 8.192-20.992z m-40.448 42.496c11.264 8.192 23.552 7.168 36.864 8.704 4.096 0 7.68-0.512 11.776-1.024 12.8 6.144 12.8 14.336 1.024 24.064-5.12 2.56-25.6-2.56-30.72-3.072-27.136-2.56-54.272-4.096-81.408-4.608-18.944-0.512-41.984-3.584-60.416 1.536-19.968 6.144-30.208 26.112-20.48 45.568 10.24 20.48 35.84 32.256 55.296 40.448 9.728 4.096 19.968 8.192 30.208 10.752 5.632 1.024 11.264 1.536 16.896 2.048 13.312-3.584 18.944 0.512 17.92 11.264 4.608 11.264 0 13.824-13.824 7.168-31.744-3.072-37.888 9.216-39.936 31.744-16.384-5.632-37.376-27.648-47.616-35.328-16.384-12.288-31.232-23.04-51.712-26.112-19.456-3.072-49.664-23.04-59.904 5.632-9.728 27.136 8.704 62.976 27.648 81.408 5.632 5.632 13.312 11.776 20.992 14.848 2.56 1.024 5.12 2.56 7.68 3.584 5.632 1.536 9.728-4.096 6.656 0.512-1.536 2.048-10.24 4.096-12.8 6.144-3.584 3.072-5.12 9.216-8.192 12.288-3.584 3.072-5.632 3.072-14.848 2.56-14.848-1.024-29.184-2.56-41.472-12.8-15.872-13.312-33.28-31.744-45.568-48.64-13.824-19.456-11.264-65.536-49.152-52.736-31.232 10.24-27.136 53.76-29.184 78.848-1.024 15.36 2.56 55.296-11.776 66.56-6.144 4.608-2.048-6.144-3.072-13.824-1.024-9.728-3.584-18.944-7.68-28.16-10.752-24.576-38.4-54.784-68.096-46.08-23.04 6.656-42.496 19.968-66.56 24.576-26.112 5.12-52.224 5.12-78.336 0.512-1.024-7.68 1.536-14.848 7.68-22.528 29.184 1.536 60.928 6.144 89.6 2.048 15.36-2.048 29.184-9.216 31.232-25.6 7.68-51.2-63.488-53.248-94.72-48.64-32.256 5.12-64 6.656-96.256 3.584-5.12-0.512-10.24-1.536-15.36-2.048-2.56-6.144-5.632-12.8-8.192-18.944 1.536-1.536 17.408 2.56 20.992 3.072 16.384 3.072 32.768 7.168 49.152 9.216 32.768 4.096 81.92-23.552 50.688-60.416-13.824-16.384-34.816-16.896-54.784-15.872-14.848 0.512-29.696 2.048-44.544 3.072-11.264 0.512-13.312 2.56-21.504-6.144-13.824-13.312 6.656-6.656 16.384-6.656 14.848 0 34.816 1.024 38.4-17.92 4.096-19.968-17.408-33.28-32.256-40.96-24.576-12.288-68.608-18.944-76.8-49.152-6.656-24.576 11.264-21.504 27.136-28.16 2.56-1.024 25.6-18.944 23.552-19.456 1.536 0.512 28.672 40.448 31.232 44.032 7.68 12.8 8.704 36.864 29.696 34.816 16.896-2.048 20.48-20.992 20.48-35.328 0-2.56-2.56-15.872-1.536-16.896 2.048 0.512 4.608 0.512 6.656 1.024 9.216-1.024 12.288 4.608 8.192 16.384 0.512 12.8-0.512 25.6 3.584 37.888 12.8 36.352 54.272 40.96 74.24 7.68 0.512-0.512 1.024-2.048 2.048-3.584 0 9.216 1.024 18.432 1.024 20.992 1.024 26.624 5.12 53.248 16.896 77.312 11.776 24.576 53.248 83.968 84.48 50.688 14.336-15.36 16.896-43.52 19.456-62.976 4.096-31.232 3.584-62.464 2.56-93.696-1.024-23.04-1.536-37.888-18.432-54.784-18.432-18.944-38.912-40.96-61.952-53.76-22.016-12.288-46.592-10.752-70.656-12.8-19.456-2.048-57.344-1.024-47.104-36.864 3.584-12.288 17.92-22.528 23.04-35.328 13.824-35.328-6.656-77.824-43.008-89.6-15.872-5.12-27.648-1.024-5.12-7.68 20.48-6.144 33.28-0.512 51.2 8.704 19.456 9.728 41.984 9.216 58.88-5.12 1.536-1.024 8.192-10.24 10.752-11.264 3.584-8.192 7.168-7.168 10.24 2.048 0.512 2.56 1.536 5.12 2.048 7.68 5.632 15.872 8.192 32.256 14.848 47.616C380.928 430.08 394.24 464.896 417.28 468.992c18.432 3.072 32.256-13.312 35.84-29.696 6.144-26.624-11.264-47.104-22.016-69.632-12.8-27.648-14.848-58.88-29.696-85.504-9.728-17.408-23.04-26.624-25.6-48.64-1.024-9.216-1.024-18.944-1.024-28.672 24.576 13.824 54.784 15.872 62.464-19.968 2.56-10.752 0-22.016 2.56-32.768 3.584-12.8 12.288-20.48 20.992-30.208 0 5.632-0.512 11.264-0.512 17.408-0.512 9.728-1.024 17.92 4.096 26.624 7.68 12.8 21.504 19.456 35.84 13.312 21.504-9.216 41.984-39.936 58.368-56.32 19.456-19.968 38.912-40.448 57.856-61.44 11.264 30.208-16.384 61.44-34.304 84.48-9.728 12.8-19.968 30.72-11.264 46.592 4.096 7.68 11.264 8.192 16.384 13.312 14.848 14.848 6.144 31.744-1.024 49.152-13.824 33.792-35.328 59.392-57.856 87.552-30.208 37.888-8.192 83.968 32.256 104.448 19.456 9.728 30.72 0 44.032-14.336 20.992-22.016 41.472-44.544 62.464-67.072 5.632 4.096 12.288 6.656 20.48 6.144 19.456-1.024 30.208-16.896 40.96-31.232 11.264 24.576-38.912 56.32-43.52 78.848-2.048 9.216-0.512 17.92 4.096 26.624 1.536 2.56 4.608 5.12 8.704 8.192-20.992 0.512-43.52 3.584-51.712 21.504-4.608 9.728-3.072 20.992 0 31.232 2.048 6.144 10.24 16.384 9.728 22.016-1.536 19.968-27.648 16.384-39.936 14.336-20.992-4.096-47.104-15.872-55.808 12.8-4.608 14.336-0.512 32.768 0 47.104 1.024 20.992 1.536 43.008-3.072 63.488-5.632 25.6-40.448 56.832-24.064 83.456 13.312 22.528 44.032 14.336 60.928 1.536 27.136-20.992 32.768-55.296 40.448-86.016 2.048-9.216 3.584-26.112 10.24-32.256 8.704-2.56 16.896-5.632 25.6-8.192 1.536 4.096 3.072 8.192 3.584 12.288 3.584 14.848 4.608 27.648 12.288 40.448 4.608 7.68 13.312 9.216 20.992 5.632 38.4-17.408 25.088-55.296 30.72-88.064 5.12-27.136 26.112-23.552 43.008-37.376 4.096-3.584 7.68-7.168 9.728-11.776 5.12 22.528 1.536 56.832 12.288 70.144 15.872 19.456 36.352 2.56 48.128-11.776 4.608-5.632 8.704-12.288 12.288-18.944 0-0.512 0.512-1.024 0.512-1.536l1.536 1.536c3.072 3.584 8.192 6.656 12.8 8.192 31.744 11.264 43.52-20.992 65.536-31.744 7.68 14.848 3.584 40.96-4.096 52.736-9.728 15.36-25.088 16.896-41.984 18.432-16.896 1.536-31.744 2.048-46.08 12.8-20.48 14.336-24.576 43.52-2.56 59.392zM163.84 772.608c8.704 0 16.896-1.024 24.064-1.536 9.728-0.512 26.112-5.12 34.816-2.56 1.536 0 3.584 0 5.12-0.512 2.56 5.632 5.12 11.264 8.192 16.896-1.536 2.048-23.552-3.584-25.6-3.584-15.36-2.048-31.232-6.656-46.592-8.704z" fill="#056137" /></svg>