<?xml version="1.0" encoding="utf-8"?>
<!-- Uploaded to: SVG Repo, www.svgrepo.com, Generator: SVG Repo Mixer Tools -->
<svg width="800px" height="800px" viewBox="0 0 1024 1024" class="icon"  version="1.1" xmlns="http://www.w3.org/2000/svg"><path d="M676.352 375.808c26.624-4.096 53.248-12.8 76.288-27.136 27.136-17.408 61.952-51.712 33.28-82.432-10.752-11.776-24.576-21.504-38.4-30.208-13.824-9.216-29.184-21.504-44.032-9.216-19.456 15.36-40.448 27.648-64 35.84-17.92 6.144-49.152 15.872-67.072 4.608-14.336-9.216-10.24-24.064-4.608-36.864 1.024-22.016 14.336-37.376 28.16-53.248 8.704-9.728 17.408-18.944 25.6-29.184 8.704-9.728 28.672-30.208 11.776-39.424-8.704-4.608-22.016-4.608-31.232-8.192-11.264-4.096-21.504-9.728-31.232-16.896-16.896-11.776-31.744-26.624-46.08-41.472-15.36 20.48-32.256 39.424-51.712 56.32-10.752 9.216-21.504 17.92-33.28 25.6-7.168 5.12-15.872 9.216-22.528 15.36-9.728 9.728-2.048 15.872 4.608 24.064 4.096 5.12 8.192 9.728 12.288 13.824l-13.824 13.312c-1.536-1.536-3.072-3.072-4.608-5.12-14.848-14.848-33.792-30.72-19.456-52.736 12.288-19.456 39.936-30.208 57.344-45.056 23.04-18.944 43.008-40.96 60.416-65.536 1.024-1.536 2.56-2.56 3.584-3.072 3.584-3.584 9.216-4.608 13.824 0 19.968 21.504 40.96 44.544 67.584 57.856 17.92 8.704 47.616 6.656 59.392 25.088 12.288 18.944-6.656 40.96-17.92 55.296-17.408 20.48-52.224 46.08-52.736 75.264 0 2.048-0.512 3.584-1.536 5.12-10.24 23.04 27.136 11.776 38.912 8.704 14.848-4.096 29.184-10.24 42.496-17.92 17.408-10.24 35.328-34.304 58.368-27.136 24.064 7.68 48.64 28.16 67.584 45.056 16.896 14.848 29.696 33.792 23.552 57.344-10.752 41.472-57.856 69.12-95.232 82.432-12.8 4.608-26.112 7.68-39.424 9.728-5.12 1.024-13.824 1.024-21.504 1.536l-3.072-18.432c6.144-1.536 12.288-2.048 18.432-3.072z" fill="#056137" /><path d="M678.912 749.568c-18.944 17.92 6.656 50.688 18.944 64 20.992 23.552 50.176 38.912 80.384 46.592 14.336 3.584 29.184 5.632 43.52 6.144 8.192 0.512 16.384 0 24.576-0.512 2.56-0.512 9.728-2.048 11.776-1.024l12.8 12.8c-1.024 4.608-3.072 8.704-5.632 12.288-36.352 62.464-130.048 77.824-195.584 70.656-47.616-5.12-80.384-29.696-96.256-74.752-12.8-36.352-18.432-75.264-40.448-108.032-4.608-6.656-12.8-6.144-17.408 0-13.824 19.456-17.408 41.984-22.528 65.024-5.632 27.648-15.36 52.224-34.816 72.704-36.864 38.912-91.136 54.784-143.872 49.152-28.672-3.072-56.832-11.776-82.944-24.576-23.552-11.264-62.976-28.672-71.168-55.808-10.24-31.744 62.976-25.6 81.92-26.624 25.6-1.536 50.688-5.12 73.728-15.872 16.896-8.192 32.256-19.968 42.496-35.328 8.192-12.8 17.92-35.328 5.632-49.152-13.824-15.36-46.08-0.512-62.976 2.048-33.792 5.632-68.096 8.704-102.4 8.704-51.2 0.512-113.664-8.704-107.008-74.752 1.536-15.872 5.12-32.256 7.68-48.128 1.024-7.168 1.536-15.36 4.096-22.528 3.584-10.752 0-9.216 10.752-8.704 12.8 0.512 27.136 8.192 38.912 12.8 14.848 6.144 29.184 12.8 44.032 18.944 49.664 20.48 102.4 25.088 155.648 16.896 1.024 0 1.536-0.512 2.56-0.512 34.816-5.632 89.6-44.032 58.368-84.992-10.24-13.312-27.136-16.384-43.008-17.408-31.744-1.536-62.976-1.024-94.72-5.12-32.256-3.584-64-9.728-95.232-17.92-14.848-3.584-31.232-6.656-35.84-24.064-4.096-15.872-2.048-36.352 0.512-52.224 3.584-24.064 11.776-50.688 25.6-70.656 8.704-12.8 22.016-24.064 38.4-19.968 14.848 4.096 25.6 17.408 36.352 27.648 35.328 33.792 80.384 54.784 129.536 55.296 27.136 0.512 80.896-15.36 61.44-53.76-8.192-16.384-28.672-20.48-45.056-23.552-30.208-5.632-58.88-14.336-86.528-28.16-13.824-7.168-27.648-15.36-39.936-24.576-4.096-3.072-9.216-6.144-12.8-9.728-11.264-10.752 1.024-20.992 8.704-30.208 11.264-13.312 22.528-27.136 34.304-40.448 13.312-15.36 25.6-26.624 46.08-13.824 24.576 15.36 37.376 40.448 66.048 50.176 22.016 7.68 50.176 8.192 71.168-3.072 16.384-8.704 23.552-25.088 12.288-41.472-15.36-22.528-38.4-38.912-57.856-58.368-4.608-4.608-8.704-9.216-12.288-13.824-6.656-8.192-14.336-14.336-4.608-24.064 6.144-6.144 14.848-10.752 22.528-15.36 11.776-7.68 22.528-16.384 33.28-25.6 19.456-16.896 36.352-35.84 51.712-56.32 14.336 15.36 29.184 29.696 46.08 41.472 9.728 6.656 19.968 12.8 31.232 16.896 9.728 3.584 22.528 3.072 31.232 8.192 16.896 9.216-3.072 29.696-11.776 39.424-8.704 9.728-17.408 18.944-25.6 29.184-14.336 16.384-27.648 31.232-28.16 53.248-5.632 13.312-9.728 28.16 4.608 36.864 17.92 11.264 49.152 1.536 67.072-4.608 23.552-7.68 44.032-20.48 64-35.84 15.36-11.776 30.208 0.512 44.032 9.216 13.312 8.704 27.136 18.944 38.4 30.208 29.184 30.72-5.632 65.024-33.28 82.432-23.04 14.336-49.664 23.04-76.288 27.136-6.144 1.024-12.8 1.536-18.944 2.56-15.36 2.048-30.72 6.144-39.424 19.968-10.24 15.872-4.096 34.304 12.288 43.008 19.456 9.728 46.08 6.656 66.56 4.096 27.136-4.096 52.736-12.8 77.824-24.064 13.824-6.144 27.136-13.824 39.936-21.504 6.144-3.584 11.776-7.168 17.92-11.264 5.632-3.584 13.824-11.776 19.968-13.824 7.168-2.048 5.632-0.512 10.24 7.168 4.096 6.656 7.68 12.8 11.776 19.456 8.192 13.824 16.384 27.136 24.576 40.96 18.944 32.768 8.192 64.512-24.576 83.456-27.648 15.36-62.464 19.968-93.184 25.6-32.256 6.144-64.512 11.776-97.28 16.384-4.096 0.512-9.216 1.024-13.824 2.048-15.36 2.56-31.744 6.656-37.376 22.016-8.704 23.552 15.36 42.496 34.816 50.688 26.112 10.752 56.832 13.824 84.992 15.36 60.928 3.072 120.832-8.704 176.64-32.768 5.632 40.448 6.144 86.528-8.192 124.416-9.216 25.6-37.888 22.528-60.416 22.016-25.088 0-49.664-2.048-74.24-5.632-20.48-3.072-40.96-7.68-60.928-12.8-13.312-2.56-32.768-13.312-45.568-2.048z" fill="#3B9548" /><path d="M752.128 657.408c-28.16-1.536-58.88-4.608-84.992-15.36-18.944-7.68-43.52-26.624-34.816-50.688 5.632-15.36 22.016-19.968 37.376-22.016l2.56 17.92c-6.656 1.024-12.8 3.072-16.384 6.144-16.896 14.848 13.824 28.672 24.576 32.256 24.576 8.192 52.224 10.752 78.336 11.776 59.392 2.048 118.784-10.752 172.544-36.352 5.12-2.56 13.312-1.024 14.848 6.144 8.192 47.616 10.752 106.496-8.192 152.576-17.92 42.496-77.824 32.768-114.688 30.208-25.088-2.048-50.688-5.632-75.264-10.752-11.776-2.56-24.064-5.632-35.84-8.704 0 0-13.312-4.608-14.336-4.096-8.704 4.608-2.048 11.264 1.024 16.896 19.968 34.304 57.344 53.76 95.232 60.928 22.016 4.096 41.984 2.048 64 1.024 13.312-0.512 26.624 3.072 31.744 16.896 11.264 29.696-24.576 62.464-45.056 77.824-57.344 41.984-151.552 56.32-218.624 31.744-75.776-28.16-70.144-107.52-101.376-167.936-8.704 19.968-10.24 41.984-15.872 62.976-27.136 99.84-141.312 135.68-233.472 111.616-26.112-6.656-51.2-17.92-74.752-31.232-19.968-11.776-43.52-25.088-54.784-46.592-8.192-15.36-10.24-36.864 4.608-48.64 18.432-14.848 55.808-11.776 77.824-12.8 30.208-1.536 61.952-3.584 88.576-19.456 12.8-7.68 23.552-17.92 29.696-31.232 3.584-8.192 4.096-14.336-5.632-15.872-6.144-0.512-15.872 3.584-22.016 4.608-54.272 10.24-113.664 17.408-168.448 8.192-44.032-7.168-79.36-33.28-78.336-80.896 0.512-29.696 8.192-60.928 13.824-90.112 4.096-22.016 18.432-23.04 38.4-17.92 27.648 7.168 53.248 19.968 79.36 30.72 30.72 12.8 60.416 19.968 93.696 19.456 15.872 0 35.328 0.512 53.248-2.56l3.072 18.944c-53.248 8.704-105.984 3.584-155.648-16.896-14.848-6.144-29.184-12.8-44.032-18.944-11.776-4.608-26.112-12.288-38.912-12.8-10.752-0.512-7.68-2.048-10.752 8.704-2.048 7.168-2.56 15.36-4.096 22.528-2.56 15.872-6.144 31.744-7.68 48.128C86.016 759.296 148.48 768.512 199.68 768c34.304 0 68.608-3.072 102.4-8.704 16.384-3.072 48.64-17.408 62.976-2.048 12.288 13.312 2.56 36.352-5.632 49.152-10.24 15.872-25.6 27.136-42.496 35.328-23.04 10.752-48.64 14.336-73.728 15.872-18.432 1.024-91.648-5.12-81.92 26.624 8.704 27.136 47.616 44.544 71.168 55.808 26.112 12.288 54.272 21.504 82.944 24.576 52.736 5.632 107.008-10.24 143.872-49.152 19.456-20.992 29.184-45.056 34.816-72.704 4.608-23.04 8.704-45.568 22.528-65.024 4.608-6.144 12.8-6.656 17.408 0 22.016 32.768 27.648 71.68 40.448 108.032 15.872 45.056 48.64 69.632 96.256 74.752 65.536 6.656 159.232-8.704 196.096-70.656 2.56-3.584 4.608-7.68 5.632-12.288l-12.8-12.8c-2.048-0.512-8.704 1.024-11.776 1.024-8.192 0.512-16.384 1.024-24.576 0.512-14.848-0.512-29.184-2.56-43.52-6.144-30.208-7.68-59.392-23.04-80.384-46.592-12.288-13.824-37.888-46.592-18.944-64 12.288-11.776 32.256-0.512 45.568 3.072 19.968 5.632 40.448 9.728 60.928 12.8 24.576 3.584 49.152 5.632 74.24 5.632 22.528 0 51.2 3.584 60.416-22.016 13.824-37.888 13.824-83.968 8.192-124.416-56.832 24.064-117.248 35.84-177.664 32.768z" fill="#056137" /><path d="M696.832 444.928c-20.48 3.072-47.104 5.632-66.56-4.096-16.384-8.192-22.528-26.624-12.288-43.008 8.704-14.336 24.064-17.92 39.424-19.968l3.072 18.432c-8.192 1.024-15.872 2.56-18.944 6.144l-3.072 19.968c2.56 1.024 5.12 1.536 7.68 2.56 5.12 2.56 15.872 1.536 21.504 1.536 14.848 0 30.208-1.536 44.544-5.12 28.672-6.656 55.296-18.432 80.896-32.768 10.24-5.632 19.968-11.776 30.208-18.432 8.704-5.632 19.456-16.384 29.696-18.944 20.48-5.632 29.696 22.528 37.888 35.84 12.288 19.968 27.648 40.96 35.84 62.976 16.384 44.032-17.92 82.944-56.32 98.816-25.088 10.24-52.736 14.848-78.848 19.968-28.16 5.632-56.832 10.752-85.504 14.848-7.68 1.024-20.992 1.024-32.256 3.072l-2.56-17.92c5.12-0.512 9.728-1.536 13.824-2.048 32.256-4.608 65.024-10.24 97.28-16.384 30.72-6.144 65.536-10.24 93.184-25.6 33.28-18.432 43.52-50.176 24.576-83.456-7.68-13.824-16.384-27.136-24.576-40.96-4.096-6.656-7.68-12.8-11.776-19.456-4.608-7.68-3.072-9.216-10.24-7.168-6.144 1.536-14.336 9.728-19.968 13.824-6.144 4.096-11.776 7.68-17.92 11.264-12.8 7.68-26.624 14.848-39.936 21.504-25.6 12.288-51.712 20.992-78.848 24.576zM479.744 276.48c-20.992 11.264-49.152 10.752-71.168 3.072-28.672-9.728-41.472-34.816-66.048-50.176-20.48-12.8-32.768-1.536-46.08 13.824-11.264 13.312-22.528 27.136-34.304 40.448-7.68 9.216-19.968 19.456-8.704 30.208 3.584 3.584 8.704 6.656 12.8 9.728 12.8 9.216 26.112 17.408 39.936 24.576 27.136 13.824 56.32 22.528 86.528 28.16 16.384 3.072 36.864 7.168 45.056 23.552 18.944 38.4-34.304 54.272-61.44 53.76-49.152-1.024-94.72-21.504-129.536-55.296-10.752-10.24-21.504-23.552-36.352-27.648-16.384-4.096-29.696 7.68-38.4 19.968-13.824 20.48-22.016 46.592-25.6 70.656-2.56 16.384-5.12 36.352-0.512 52.224 4.608 16.896 20.992 19.968 35.84 24.064 31.232 8.192 63.488 13.824 95.232 17.92 31.744 3.584 62.976 3.072 94.72 5.12 15.872 1.024 32.768 4.096 43.008 17.408 31.232 40.448-23.552 78.848-58.368 84.992-1.024 0-1.536 0.512-2.56 0.512l-3.072-18.944c13.824-2.56 27.136-6.656 37.376-15.36 15.872-13.824 20.992-39.424-3.584-46.592-13.312-3.584-28.672-1.536-42.496-2.048-59.904-1.536-126.464-7.68-183.296-28.16-47.616-17.408-36.864-80.384-26.112-119.296 10.24-35.84 35.84-94.208 83.456-81.408 22.528 6.144 37.376 26.112 53.76 40.448 21.504 18.944 47.616 31.744 75.776 37.888 13.312 3.072 89.088 9.216 73.216-20.992-6.144-11.776-25.088-12.288-37.376-14.336-13.312-2.56-26.112-6.144-38.912-10.24-26.112-8.704-51.712-20.48-74.752-35.84-14.848-9.728-40.96-24.064-39.936-45.568 0.512-10.24 7.68-17.92 13.312-25.088 9.728-11.776 19.456-23.04 29.184-34.816 14.336-16.896 28.16-40.448 53.248-40.448 23.04 0 39.936 16.384 55.296 31.744 22.016 22.528 51.2 36.352 82.944 27.136 7.168-2.048 14.336-9.728 11.776-18.432-1.024-2.56-6.144-6.144-8.192-8.192-5.632-5.632-10.752-11.264-16.384-16.896-9.216-9.728-18.944-18.944-28.16-28.672l13.824-13.312c19.456 19.456 43.008 36.352 57.856 58.368 10.752 16.896 3.584 32.768-12.8 41.984z" fill="#056137" /></svg>