<?xml version="1.0" encoding="utf-8"?>
<!-- Uploaded to: SVG Repo, www.svgrepo.com, Generator: SVG Repo Mixer Tools -->
<svg width="800px" height="800px" viewBox="0 0 1024 1024" class="icon"  version="1.1" xmlns="http://www.w3.org/2000/svg"><path d="M573.44 784.896c0.512 47.104 0.512 94.72 1.024 141.824-10.752-10.24-27.648-31.744-35.84-70.656-8.192-39.936-39.936-59.392-87.04-88.064-14.336-8.704-31.232-18.944-49.152-30.72-57.856-38.4-59.392-95.744-58.368-115.712l70.656-5.12c5.632-0.512 9.728-4.608 10.752-9.728 1.024-5.632-2.048-10.752-7.168-12.8l-67.072-29.696C276.48 496.64 295.936 424.448 303.104 405.504c22.528 3.072 53.248 11.264 75.264 17.92 5.632 1.536 11.776-1.024 14.336-6.144 2.56-5.632 0.512-11.776-4.096-14.848-46.592-30.72-75.264-57.856-80.384-77.312-9.216-32.768 23.04-75.264 33.28-87.552l74.752 40.448c5.12 2.56 10.752 1.536 14.336-2.56 3.584-4.096 4.096-10.24 0.512-14.848-33.28-44.544-21.504-75.264-15.36-86.016l55.296 15.872c4.096 1.024 8.704 0 11.776-3.584 3.072-3.584 4.096-8.192 2.048-12.288-10.752-27.136-2.56-60.928 1.536-74.24l24.064 9.728c3.584 1.536 7.168 1.024 10.24-0.512 3.072-2.048 5.632-5.12 5.632-9.216 3.072-28.672 30.72-48.128 48.128-57.344-1.024 64-2.048 127.488-2.56 191.488-21.504-5.12-41.472-14.336-52.224-34.816-4.096-7.168-14.336-1.024-10.752 6.144 13.312 24.064 37.376 35.84 62.976 41.472-0.512 114.688-0.512 228.864 0 343.552-51.712-17.92-110.592-33.28-138.752-84.992-3.584-7.168-14.336-1.024-10.752 6.144 29.696 55.808 93.696 72.192 148.992 92.16 1.024 59.392 1.536 120.32 2.048 180.736zM861.696 405.504c7.168 18.944 26.624 91.136-48.64 158.72L745.472 593.92c-5.12 2.048-7.68 7.168-6.656 12.8 1.024 5.632 5.12 9.216 10.752 9.728l70.656 5.12c1.536 20.48-0.512 77.312-58.368 115.712-17.408 11.776-33.28 21.504-47.616 30.208-47.616 29.184-78.848 48.64-88.576 88.576-11.264 46.08-31.232 64-39.424 70.144 0-39.424-0.512-78.848-0.512-118.272 57.344-14.848 97.792-59.904 128-108.544 4.096-6.656-6.656-12.8-10.752-6.144-28.16 45.056-65.024 87.04-117.248 101.888-0.512-65.024-1.024-130.048-1.024-194.56v-2.56c0-54.272-0.512-108.032-0.512-162.304 31.232-1.024 61.952-12.8 91.648-20.48 7.68-2.048 4.608-13.824-3.072-11.776-28.672 7.68-58.368 18.944-88.576 20.48 0-59.392 0-119.296 0.512-179.2 0.512-67.584 1.024-135.68 2.56-203.264 16.896 8.704 48.128 28.672 51.2 58.88 0.512 3.584 2.56 7.168 5.632 9.216 3.072 2.048 7.168 2.048 10.752 0.512l24.064-9.728c4.096 13.824 12.288 47.104 1.536 74.24-1.536 4.096-1.024 9.216 2.048 12.288 3.072 3.072 7.68 4.608 11.776 3.584l55.296-15.872c6.144 10.752 17.92 41.472-15.36 86.016-3.584 4.608-3.072 10.752 0.512 14.848 3.584 4.096 9.728 5.12 14.336 2.56l74.752-40.448c10.24 12.288 42.496 55.296 33.28 87.552-5.632 19.456-34.304 47.104-80.384 77.312-5.12 3.072-6.656 9.216-4.096 14.848 2.56 5.12 8.192 8.192 14.336 6.144 21.504-6.656 51.712-14.848 74.752-17.92z" fill="#3B9548" /><path d="M675.84 84.48c3.072-1.024 6.656-1.024 9.216 0 3.072 1.536 5.12 4.096 6.144 7.168 4.608 14.336 14.336 50.176 4.608 81.92L747.52 158.72c5.12-1.536 10.24 0.512 13.312 4.608 6.656 10.24 24.576 45.056-7.168 94.208l65.536-35.328c4.608-2.56 11.264-1.536 14.848 2.56 11.776 13.824 49.152 62.464 37.376 103.424-7.168 25.088-39.424 52.736-70.656 74.752 20.48-5.632 43.52-11.264 61.44-13.312 5.12-0.512 10.24 2.56 12.288 7.168 6.656 16.384 34.304 100.864-51.712 177.664-1.024 1.024-2.048 1.536-3.072 2.048l-56.32 25.088 60.928 4.608c5.632 0.512 10.24 5.12 10.752 10.752 2.048 19.456 3.072 87.04-64.512 132.096-17.408 11.776-33.792 21.504-48.128 30.208-46.08 28.16-73.728 45.056-81.408 79.36-16.384 68.096-51.2 82.432-52.736 82.944l-1.024-3.072c0 18.944 0 37.888 0.512 56.832 0 8.192-12.288 8.192-12.288 0 0-16.384 0-33.28-0.512-49.664-6.656-4.096-37.888-27.648-50.688-86.528-7.168-33.792-34.816-50.688-80.384-78.336-14.848-9.216-31.232-18.944-49.152-31.232-67.584-45.056-66.56-112.64-64.512-132.096 0.512-5.632 5.12-10.24 10.752-10.752l60.928-4.608-56.32-25.088c-1.024-0.512-2.048-1.024-3.072-2.048-86.528-77.312-58.368-161.792-51.712-177.664 2.048-5.12 7.168-7.68 12.288-7.168 17.92 2.048 40.96 7.68 61.44 13.312-31.232-22.016-63.488-50.176-70.656-74.752-11.776-40.96 25.6-89.6 37.376-103.424 3.584-4.096 9.728-5.632 14.848-2.56l65.536 35.328c-31.232-49.664-13.824-84.48-7.168-94.208 3.072-4.096 8.192-6.144 13.312-4.608l51.712 14.848c-10.24-32.256-0.512-67.584 4.096-81.92 1.024-3.072 3.584-5.632 6.144-7.168 3.072-1.536 6.144-1.536 9.216 0l23.552 9.728c7.68-45.568 61.952-69.12 69.632-72.192v-0.512h1.024v0.512c7.68 3.072 61.952 26.624 69.632 72.192l23.04-10.24z m38.4 614.912c-30.208 48.64-70.656 93.696-128 108.544 0.512 39.424 0.512 78.848 0.512 118.272 8.704-5.632 28.672-23.552 39.424-70.144 9.728-39.936 40.96-59.392 88.576-88.576 14.336-8.704 30.208-18.432 47.616-30.208 57.856-38.4 59.904-95.744 58.368-115.712l-70.656-5.12c-5.632-0.512-9.728-4.608-10.752-9.728-1.024-5.632 2.048-10.752 6.656-12.8l67.072-29.696c75.264-67.584 55.296-139.776 48.64-158.72-22.528 3.072-53.248 11.264-75.264 17.92-5.632 1.536-11.776-1.024-14.336-6.144-2.56-5.632-0.512-11.776 4.096-14.848 46.592-30.72 74.752-57.856 80.384-77.312 9.216-32.768-23.04-75.264-33.28-87.552l-74.752 40.448c-5.12 2.56-10.752 1.536-14.336-2.56-3.584-4.096-4.096-10.24-0.512-14.848 33.28-44.544 21.504-75.264 15.36-86.016l-55.296 15.872c-4.096 1.024-8.704 0-11.776-3.584-3.072-3.584-4.096-8.192-2.048-12.288 10.752-27.136 2.56-60.928-1.536-74.24l-24.064 9.728c-3.584 1.536-7.168 1.024-10.752-0.512-3.072-2.048-5.12-5.12-5.632-9.216-3.072-30.208-34.304-50.176-51.2-58.88-1.024 67.584-2.048 135.68-2.56 203.264-0.512 59.904-0.512 119.296-0.512 179.2 29.696-1.024 59.904-12.8 88.576-20.48 7.68-2.048 10.752 9.728 3.072 11.776-29.696 8.192-60.416 19.456-91.648 20.48 0 54.272 0.512 108.032 0.512 162.304v2.56c0.512 65.024 0.512 130.048 1.024 194.56 52.736-14.848 89.6-56.832 117.248-101.888 5.12-6.656 15.872-0.512 11.776 6.144zM307.2 324.608c5.632 19.456 34.304 47.104 80.384 77.312 5.12 3.072 6.656 9.216 4.096 14.848-2.56 5.12-8.704 8.192-14.336 6.144-22.016-6.656-52.736-14.848-75.264-17.92-7.168 18.944-26.624 91.136 48.64 158.72l67.072 29.696c5.12 2.048 7.68 7.168 7.168 12.8-1.024 5.632-5.12 9.216-10.752 9.728l-70.656 5.12c-1.536 20.48 0 77.312 58.368 115.712 17.92 11.776 34.304 22.016 49.152 30.72 47.616 28.672 78.848 48.128 87.04 88.064 8.192 38.912 25.6 60.416 35.84 70.656-0.512-47.104-0.512-94.72-1.024-141.824-0.512-60.416-0.512-121.344-1.024-181.76-55.296-19.968-119.296-36.352-148.992-92.16-3.584-7.168 7.168-13.312 10.752-6.144 27.648 51.712 87.04 67.072 138.752 84.992-0.512-114.688-0.512-228.864 0-343.552-25.6-5.632-49.664-17.408-62.976-41.472-3.584-7.168 6.656-13.312 10.752-6.144 11.264 20.48 30.72 29.696 52.224 34.816 0.512-64 1.024-128 2.56-191.488-17.408 9.216-45.056 28.672-48.128 57.344-0.512 3.584-2.56 7.168-5.632 9.216-3.072 2.048-7.168 2.048-10.24 0.512l-24.064-9.728c-4.096 13.824-12.288 47.104-1.536 74.24 1.536 4.096 1.024 9.216-2.048 12.288-3.072 3.072-7.68 4.608-11.776 3.584l-56.32-14.848c-6.144 10.752-18.432 41.472 15.36 86.016 3.584 4.608 3.072 10.752-0.512 14.848-3.584 4.096-9.728 5.12-14.336 2.56l-74.752-40.448c-10.752 12.288-43.008 54.784-33.792 87.552z" fill="#056137" /></svg>