<?xml version="1.0" encoding="utf-8"?>
<!-- Uploaded to: SVG Repo, www.svgrepo.com, Generator: SVG Repo Mixer Tools -->
<svg width="800px" height="800px" viewBox="0 0 1024 1024" class="icon"  version="1.1" xmlns="http://www.w3.org/2000/svg"><path d="M375.296 332.8c53.248 50.176 119.296 49.664 122.368 49.664h8.192v-51.2l-7.168-1.024c-56.832-6.656-91.136-43.52-97.28-68.096-3.072-11.264-9.216-20.48-16.384-27.648 3.072 1.024 6.144 2.56 9.216 4.096 15.872 8.704 96.768 64.512 97.28 65.024l12.8 9.216V245.76l-6.144-1.536c-31.744-8.192-49.152-24.064-58.368-38.912 29.696 23.552 55.296 27.648 56.32 27.648l9.728 1.536V189.44l-5.12-2.048c-21.504-8.192-33.792-19.968-40.96-31.232 17.92 16.896 36.864 23.552 37.888 24.064l10.752 3.584v-56.32l-6.144-1.536c-6.144-1.536-10.752-5.12-13.824-8.704 3.584 1.024 6.656 1.536 9.728 1.024 6.656-1.024 11.264-6.144 11.776-12.288 0-1.536 1.024-7.168 2.56-15.36 0.512 7.68 1.024 13.824 1.024 15.36 0.512 6.144 5.12 11.264 11.776 12.288 3.072 0.512 6.144 0.512 9.728-1.024-3.072 3.584-7.68 6.656-13.824 8.704l-6.144 1.536v56.32l10.752-3.584c1.024-0.512 19.968-6.656 37.888-23.552-7.168 11.264-19.456 23.04-40.96 31.232l-5.12 2.048v45.056l9.728-1.536c1.536 0 27.136-4.096 56.32-27.648-9.728 14.848-26.624 31.232-58.368 38.912l-6.144 1.536v67.584l12.8-9.216c1.024-0.512 81.408-56.832 97.28-65.024 3.072-1.536 6.144-3.072 9.216-4.096-7.168 7.168-13.312 16.896-16.384 27.648-6.144 24.064-40.448 61.44-97.28 68.096l-7.168 1.024v51.2h8.192c3.072 0 69.12 0.512 122.368-49.664 27.648-26.112 51.712-29.696 65.024-28.672-8.192 8.704-19.968 21.504-32.256 36.352-2.048 2.56-4.096 5.12-6.656 8.192C650.752 378.88 610.816 429.056 527.36 423.424l-8.704-0.512V492.544h-13.312V422.912l-8.704 0.512c-83.456 5.12-123.392-45.056-147.456-74.752-2.56-3.072-4.608-5.632-6.656-8.192-12.288-15.36-24.576-28.16-32.256-36.352 13.312-1.024 37.376 2.56 65.024 28.672z" fill="#4EA3A9" /><path d="M324.608 607.744c35.84 38.912 106.496 41.984 159.744 37.888l8.704-0.512v76.8l-6.656 1.024c-1.536 0-37.376 6.144-109.056-27.648-44.032-20.48-77.312-17.92-94.72-13.824 11.776 8.704 29.696 21.504 41.984 31.744 18.944 15.36 57.856 47.104 157.184 38.912l9.216-0.512v72.192l-7.68 0.512c-2.048 0-53.248 2.56-118.272-28.16-34.304-16.384-61.44-13.824-77.824-8.704 16.384 6.144 39.424 16.384 56.832 32.256 32.768 30.208 78.336 41.472 136.192 33.792l9.216-1.536v63.488l-7.68 0.512c-1.536 0-36.864 2.048-87.552-24.064-27.136-13.824-51.2-13.312-66.048-10.24l56.32 36.864c15.36 10.24 41.984 23.04 93.696 18.944l8.704-0.512v58.88h51.2V935.936l8.704 0.512c51.2 4.096 77.824-8.704 93.696-18.944l56.32-36.864c-14.848-3.072-38.912-4.096-66.56 10.24-50.688 26.112-86.016 24.064-87.552 24.064l-7.68-0.512V850.944l9.216 1.536c57.856 7.68 103.424-3.584 136.192-33.792 17.408-16.384 40.448-26.624 56.832-32.768-16.384-5.12-43.52-8.192-78.336 8.704-65.024 30.72-115.712 28.672-118.272 28.16l-7.68-0.512v-71.68l9.216 0.512c99.328 8.192 138.24-23.552 157.184-38.912 12.288-9.728 29.696-23.04 41.984-31.744-17.408-4.096-50.688-6.656-94.72 13.824-71.68 33.792-107.52 28.16-109.056 27.648l-6.656-1.024v-76.8l8.704 0.512c53.248 4.096 124.416 1.024 159.744-37.888 20.48-22.016 48.64-44.032 67.072-57.856-48.128-1.024-81.92 5.632-100.352 18.944-38.4 28.16-126.464 36.864-130.56 37.376l-9.216 1.024V536.576l8.704 0.512C639.488 542.72 697.856 483.328 708.096 471.552c11.776-13.312 34.816-30.72 52.224-43.008-32.256 1.024-87.552 6.656-120.32 31.232-53.76 40.96-111.616 33.792-114.176 33.792l-7.168-1.024V422.912l8.704 0.512c83.456 5.12 123.392-45.056 147.456-74.752 2.56-3.072 4.608-5.632 6.656-8.192 12.288-15.36 24.576-28.16 32.256-36.352-13.824-1.024-37.376 2.56-65.024 28.672-53.248 50.176-119.296 49.664-122.368 49.664h-8.192v-51.2l7.168-1.024c56.832-6.656 91.136-43.52 97.28-68.096 2.56-11.264 9.216-20.48 16.384-27.648-3.072 1.024-6.144 2.56-9.216 4.096-15.872 8.704-96.256 64.512-97.28 65.024l-12.8 9.216V245.76l6.144-1.536c31.744-8.192 49.152-24.064 58.368-38.912-29.696 23.552-55.296 27.648-56.32 27.648l-9.728 1.536V189.44l5.12-2.048c21.504-8.192 33.792-19.968 40.96-31.232-17.92 16.896-36.864 23.552-37.888 23.552l-10.752 3.584v-56.32l6.144-1.536c6.144-1.536 10.752-5.12 13.824-8.704-3.584 1.024-6.656 1.536-9.728 1.024-6.656-1.024-11.264-6.144-11.776-12.288 0-1.536-0.512-7.168-1.024-15.36-1.536 8.192-2.048 13.824-2.56 15.36-0.512 6.144-5.12 11.264-11.776 12.288-3.072 0.512-6.144 0.512-9.728-1.024 3.072 3.584 7.68 6.656 13.824 8.704l6.144 1.536v56.32l-10.752-3.584c-1.024-0.512-19.968-6.656-37.888-24.064 7.168 11.264 19.456 23.04 40.96 31.232l5.12 2.048v45.056l-9.728-1.536c-1.536 0-27.136-4.096-56.32-27.648 9.728 14.848 26.624 31.232 58.368 38.912l6.144 1.536v67.584l-12.8-9.216c-0.512-0.512-81.408-56.832-97.28-65.024-3.072-1.536-6.144-3.072-9.216-4.096 7.168 7.168 13.312 16.896 16.384 27.648 6.144 24.064 40.448 61.44 97.28 68.096l7.168 1.024v51.2h-8.192c-3.072 0-69.12 0.512-122.368-49.664-27.648-26.112-51.2-29.696-65.024-28.672 8.192 8.704 19.968 21.504 32.256 36.352 2.048 2.56 4.096 5.12 6.656 8.192C373.248 378.88 413.184 429.056 496.64 423.424l8.704-0.512V492.544l-7.168 1.024c-2.56 0-59.904 7.168-114.176-33.792-33.28-25.088-88.064-30.72-120.32-31.232 17.408 12.288 39.936 29.696 52.224 43.008 10.752 11.776 68.608 71.168 173.056 65.536l8.704-0.512v69.632l-9.216-1.024c-3.584-0.512-92.16-9.216-130.56-37.376-18.432-13.312-52.224-19.968-100.352-18.944 18.944 14.336 46.592 36.352 67.072 58.88z m50.176 323.584l-83.456-54.272 12.8-6.144c1.536-1.024 36.864-17.408 81.92-1.024 5.12 1.536 9.728 4.096 14.848 6.656 32.768 16.896 58.88 20.992 71.168 22.016v-28.672c-31.232 3.072-59.392 1.024-83.968-6.656-21.504-6.656-40.448-17.408-56.32-32.256-26.624-24.576-69.632-34.816-70.144-34.816l-17.408-4.096 14.336-10.752c2.048-1.536 45.568-33.792 113.152-1.536 46.592 22.016 86.016 26.112 102.4 26.624v-37.888c-99.84 6.144-141.824-28.16-160.256-43.008-19.456-15.872-53.76-39.936-53.76-40.448l-11.264-7.68 11.776-6.144c2.048-1.024 43.008-22.016 107.008 1.536 5.12 2.048 10.752 4.096 16.384 6.656 49.152 23.552 79.872 26.624 92.672 26.624v-44.032c-39.936 2.56-74.752-0.512-102.912-8.704-26.112-7.168-46.592-18.944-61.44-35.328-31.744-34.304-83.456-69.12-83.968-69.632l-20.992-14.336 25.088-1.024h4.608c23.04-1.536 94.208-5.12 130.048 21.504 28.16 20.48 90.112 30.208 113.152 32.768v-33.792h-6.144c-102.912 0-160.768-59.392-171.52-71.68-18.432-20.992-70.144-54.784-70.656-55.296l-20.992-13.824 24.576-1.536c4.096 0 103.424-6.144 157.184 34.816 37.888 28.672 78.336 31.232 94.72 30.72V440.32c-86.016 1.536-129.024-52.224-152.576-81.408-2.048-3.072-4.608-5.632-6.144-7.68-21.504-26.112-41.472-45.568-41.984-46.08l-8.192-8.192 10.752-5.12c1.536-1.024 44.544-19.968 96.256 29.184 37.888 35.84 83.968 43.008 102.4 44.544v-19.968c-63.488-10.24-97.792-53.248-103.936-79.36-5.632-21.504-31.744-35.84-32.256-35.84l-19.456-10.24 21.504-5.12c8.704-2.048 28.16-1.024 47.104 9.216 12.8 6.656 61.952 40.448 86.016 57.344v-23.04C425.984 240.64 413.696 194.56 411.648 180.224c-0.512-4.096 1.536-8.192 5.12-10.24 4.096-2.048 8.704-1.024 11.264 2.048 23.04 26.112 47.104 37.376 59.904 41.472v-13.312c-50.688-22.016-55.296-61.952-55.296-78.336 0-4.608 3.072-8.192 7.68-9.216 4.608-1.024 8.704 1.536 10.752 5.632 10.24 21.504 27.648 34.304 39.424 40.448v-19.968c-20.992-9.216-28.16-30.72-27.136-47.616 0-3.072 0.512-10.24 7.168-11.264l6.656-1.024 2.56 6.144c5.12 11.264 10.24 15.36 12.8 16.384 2.048-14.336 11.776-66.048 13.824-77.312l11.776 2.048 4.608-0.512c0 2.56 5.12 60.416 6.144 75.264 2.56-1.024 7.68-5.12 12.288-16.384l2.56-6.144 6.656 1.024c6.656 1.024 7.168 8.192 7.168 11.264 1.024 16.896-6.144 38.4-27.136 47.616v19.968c11.776-6.144 29.184-18.944 39.424-40.448 2.048-4.096 6.144-6.144 10.752-5.632 4.608 1.024 7.68 4.608 7.68 9.216 0.512 16.384-4.096 55.808-55.296 78.336v13.312c12.8-4.608 36.864-15.36 59.904-41.472 3.072-3.072 7.68-4.096 11.264-2.048 4.096 2.048 6.144 6.144 5.12 10.24-2.56 14.336-14.848 60.416-75.264 78.336v23.04c24.064-16.384 73.216-50.176 86.016-57.344 18.944-10.24 38.4-11.264 47.104-9.216l21.504 5.12-19.456 10.24s-26.624 14.336-32.256 35.84c-6.656 26.112-40.448 69.12-103.936 79.36v19.968c18.432-1.536 65.024-9.216 102.4-44.544 52.224-49.152 94.72-29.696 96.256-29.184l10.752 5.12-8.192 8.192s-20.48 19.968-41.984 46.08c-2.048 2.048-4.096 5.12-6.144 7.68-23.04 29.184-65.024 81.408-148.48 81.408h-4.096v36.864c16.384 0 56.832-2.048 94.72-30.72 53.76-40.448 153.088-34.816 157.184-34.816l24.576 1.536-20.992 13.824C788.48 427.008 737.28 460.8 718.336 481.792c-11.264 12.8-71.168 74.24-177.664 71.68v33.792c23.552-3.072 84.992-12.288 113.152-32.768 36.352-26.624 107.008-22.528 130.048-21.504h4.608l25.6 1.024-20.992 14.336c-0.512 0.512-52.736 35.328-83.968 69.632-14.848 15.872-35.328 27.648-61.44 35.328-28.16 8.192-62.976 11.264-102.912 8.704V706.56c12.8 0 43.52-3.584 92.672-26.624 5.632-2.56 11.264-5.12 16.384-6.656 64-24.064 105.472-2.56 107.008-1.536l11.776 6.144-10.752 7.68c-0.512 0-34.304 24.576-53.76 40.448-18.432 14.848-60.416 49.152-160.256 43.008v37.888c16.384-0.512 55.808-4.608 102.4-26.624 67.584-32.256 111.104 0 113.152 1.536l14.336 10.752-17.408 4.096c-0.512 0-43.52 10.24-70.144 34.816-15.872 14.848-34.816 25.6-56.32 32.256-24.576 7.68-52.736 10.24-83.968 6.656v28.672c12.288-1.024 38.4-5.12 71.168-22.016 5.12-2.56 10.24-5.12 14.848-6.656 45.056-16.384 79.872 0 81.92 1.024l12.8 6.144L647.168 931.84c-26.112 16.896-56.32 24.064-95.232 22.528v57.344h-83.968V953.856c-36.864 1.536-67.072-5.632-93.184-22.528z" fill="#1D535C" /><path d="M477.696 936.96c-51.2 4.096-77.824-8.704-93.696-18.944l-56.32-36.864c14.848-3.072 38.912-4.096 66.048 10.24 50.688 26.112 86.016 24.064 87.552 24.064l7.68-0.512V850.944l-9.216 1.536c-57.856 7.68-103.424-3.584-136.192-33.792-17.408-16.384-40.448-26.624-56.832-32.256 16.384-5.12 43.52-7.68 77.824 8.704 65.024 30.72 115.712 28.672 118.272 28.16l7.68-0.512V750.592l-9.216 0.512c-99.328 8.192-138.24-23.552-157.184-38.912-12.288-9.728-29.696-23.04-41.984-31.744 17.408-4.096 50.688-6.656 94.72 13.824 71.68 33.792 107.52 28.16 109.056 27.648l6.656-1.024v-76.8l-8.704 0.512c-53.248 4.096-124.416 1.024-159.744-37.888-20.48-22.016-48.64-44.032-67.072-57.856 48.128-1.024 81.92 5.632 100.352 18.944 38.4 28.16 126.464 36.864 130.56 37.376l9.216 1.024V536.576l-8.704 0.512C384 542.72 325.632 483.328 315.392 471.552c-11.776-13.312-34.816-30.72-52.224-43.008 32.256 1.024 87.552 6.656 120.32 31.232 53.76 40.96 111.616 33.792 114.176 33.792l7.168-1.024h13.312l7.168 1.024c2.56 0 59.904 7.168 114.176-33.792 33.28-25.088 88.064-30.72 120.32-31.232-17.408 12.288-39.936 29.696-52.224 43.008-10.752 11.776-68.608 71.168-173.056 65.536l-8.704-0.512v69.632l9.216-1.024c3.584-0.512 92.16-9.216 130.56-37.376 18.432-13.312 52.224-19.968 100.352-18.944-18.432 13.824-46.592 35.84-67.072 57.856-35.84 38.912-106.496 41.984-159.744 37.888l-8.704-0.512v76.8l6.656 1.024c1.536 0 37.376 6.144 109.056-27.648 43.52-20.48 76.8-17.92 94.72-13.824-11.776 8.704-29.696 21.504-41.984 31.744-18.944 15.36-57.856 47.104-157.184 38.912l-9.216-0.512v72.192l7.68 0.512c2.048 0 53.248 2.56 118.272-28.16 34.816-16.896 61.952-13.824 78.336-8.704-16.384 6.144-39.424 16.384-56.832 32.768-32.768 30.208-78.336 41.472-136.192 33.792l-9.216-1.536v63.488l7.68 0.512c1.536 0 36.864 2.048 87.552-24.064 27.648-14.336 51.712-13.312 66.56-10.24l-56.32 36.864c-15.36 10.24-41.984 23.04-93.696 18.944l-8.704-0.512v58.88h-51.2V935.936l-8.704 1.024z" fill="#4EA3A9" /></svg>