<?xml version="1.0" encoding="utf-8"?>
<!-- Uploaded to: SVG Repo, www.svgrepo.com, Generator: SVG Repo Mixer Tools -->
<svg width="800px" height="800px" viewBox="0 0 1024 1024" class="icon"  version="1.1" xmlns="http://www.w3.org/2000/svg"><path d="M538.624 579.584l-0.512 12.288c-12.8 0-25.6-1.536-37.888-4.096l2.56-12.288c11.776 2.56 23.552 4.096 35.328 4.096h0.512z" fill="#6FA22F" /><path d="M534.528 771.072c-100.864 7.68-202.752 27.136-287.232 84.992 8.192-49.664 90.112-142.336 129.024-180.736 44.032 44.032 95.232 89.6 161.28 87.04v9.216c-0.512-0.512-1.536-0.512-3.072-0.512z" fill="#B5D577" /><path d="M655.872 285.696c-25.088 33.28-60.416 57.344-100.864 68.096 0 48.128-0.512 96.256-1.024 144.384 27.136-9.728 53.76-20.48 79.872-32.256 25.6-11.264 48.128-24.576 59.392-51.2 0.512-1.536 1.536-2.56 2.56-3.072-9.216-37.376-22.528-79.36-39.936-125.952z m-5.632-13.824c-23.04-59.392-54.272-126.464-94.72-200.704 0 60.928 0 122.368-0.512 183.296v86.528c38.912-11.264 72.704-35.328 95.232-69.12z m-100.352 499.712c0.512-0.512 1.536-0.512 3.072-0.512 101.376-0.512 211.456 19.456 293.376 82.944-14.336-37.888-53.76-124.416-124.928-176.64-44.544 48.64-105.984 78.848-171.52 85.504v8.704z m0 11.264c0 25.088 0 50.688 0.512 75.776 9.728 8.192 34.816 27.136 73.728 38.912 45.568 13.312 120.832 18.944 220.672-28.16-79.872-66.56-190.976-86.528-292.352-86.016-0.512 0-1.536 0-2.56-0.512z m2.048-143.872c-0.512 36.864-1.536 74.24-1.536 111.104 61.44-6.144 118.784-34.816 160.768-80.384l-2.048-1.024 2.048-5.632c0-0.512 10.24-30.72 8.704-92.16-21.504 15.872-50.688 23.552-74.752 32.768-15.872 6.144-31.232 12.288-47.104 18.432l-4.608-11.264c14.336-5.632 29.184-11.776 43.52-17.408s29.184-11.776 43.52-17.408c13.824-5.632 27.648-10.752 38.4-20.992-0.512-12.8-2.048-27.136-4.096-42.496-3.072-24.064-7.68-52.736-15.36-85.504-11.776 20.992-29.696 34.304-52.224 44.544-30.72 14.336-62.464 26.624-94.208 38.4l-1.536 107.52v7.68c3.584-0.512 7.168-1.536 10.752-2.56l3.584 11.776c-4.096 2.56-9.216 4.096-13.824 4.608zM542.72 292.864c-15.36 2.56-28.16-7.168-38.912-17.92l-43.008-46.08c-2.048 5.12-4.608 10.24-6.656 15.36-12.288 29.696-25.088 64-36.352 100.864 15.872 20.48 33.792 39.424 53.248 56.32 19.456 17.408 43.52 38.912 71.168 39.424v-27.136c0-39.936 0.512-80.384 0.512-120.832z m-43.008-40.448c10.752 11.264 25.088 32.768 43.008 27.648 0-70.656 0.512-141.312 0.512-211.968-16.384 27.136-46.592 79.872-76.8 147.968 10.752 12.288 22.016 24.576 33.28 36.352zM386.048 485.376c23.552 46.08 67.072 79.36 116.736 90.112l-2.56 12.288c-48.128-10.24-91.136-39.936-117.248-81.92-6.144 51.712-7.168 105.472-0.512 158.208C424.96 706.56 474.112 752.64 537.6 750.08c0.512-52.736 1.536-105.472 2.048-158.208h-2.048l0.512-12.288h1.536c0.512-41.984 1.536-83.968 2.048-126.464-28.672 0-52.224-19.968-73.216-37.376-20.48-16.896-38.4-35.84-55.296-56.32-10.752 39.424-20.992 81.92-27.136 125.952z m-9.216 189.952c-38.4 38.912-120.832 131.072-129.024 180.736 84.48-57.856 186.368-77.824 287.232-84.992 1.024 0 2.048 0 3.072 0.512v-9.216c-66.56 2.56-117.76-43.008-161.28-87.04z m-35.84 224.768c74.752 14.848 140.288-0.512 195.072-46.592l2.048-2.048c-0.512-23.04-0.512-46.08-0.512-69.12-0.512 0.512-1.536 1.024-3.072 1.024-99.328 7.68-199.168 27.136-282.112 84.48 14.848 8.192 47.616 24.064 88.576 32.256zM232.448 870.4c-8.704-59.904 114.688-186.88 135.168-206.848-19.456-157.696 28.672-317.952 73.216-424.96 48.128-116.736 101.888-197.12 102.4-198.144l6.656-10.24 6.144 10.752c123.904 219.648 163.328 378.368 174.592 472.576 10.24 84.992 0.512 134.144-3.584 150.016 98.304 70.144 138.24 199.68 140.288 205.312l2.048 6.144-5.632 2.56c-67.072 33.28-124.416 44.544-169.984 44.544-29.184 0-54.272-4.608-73.728-10.24-31.744-9.216-54.272-23.04-68.608-33.28 1.024 34.304 2.048 68.608 4.608 102.912 0.512 8.192-11.776 7.68-12.288 0-2.56-36.864-4.096-73.728-4.608-110.592-56.32 44.032-125.952 59.392-200.704 44.032-58.88-11.776-99.84-37.888-101.376-38.912l-3.072-2.048-1.536-3.584z" fill="#6FA22F" /><path d="M552.96 771.072c-1.024 0-2.048 0-3.072 0.512v-9.216c65.536-6.656 126.976-36.864 171.52-85.504 70.656 52.224 110.08 138.752 124.928 176.64-81.92-62.976-192-82.944-293.376-82.432zM386.048 485.376c6.656-44.032 16.384-86.528 27.648-125.44 16.384 20.48 34.816 39.424 55.296 56.32 20.992 17.408 44.544 36.864 73.216 37.376-0.512 41.984-1.024 83.968-2.048 126.464h-1.536-0.512c-11.776 0-23.552-1.536-35.328-4.096-49.664-11.264-93.696-44.544-116.736-90.624zM551.936 619.008l1.536-107.52c31.744-11.776 63.488-24.064 94.208-38.4 22.528-10.24 40.448-24.064 52.224-44.544 7.68 32.768 12.8 60.928 15.36 85.504 2.048 15.36 3.072 29.696 4.096 42.496-11.264 10.24-24.576 15.36-38.4 20.992-14.848 5.632-29.184 11.776-43.52 17.408s-29.184 11.776-43.52 17.408c-10.24 4.096-20.48 8.704-30.72 12.288-3.584 1.024-7.168 2.048-10.752 2.56-0.512-3.072-0.512-5.632-0.512-8.192z" fill="#B5D577" /><path d="M382.976 664.064c-6.656-53.248-5.632-106.496 0.512-158.208 26.112 41.472 69.12 71.168 117.248 81.92 12.288 2.56 25.088 4.096 37.888 4.096h2.048c-1.024 52.736-2.048 105.472-2.048 158.208-64.512 2.56-113.664-43.52-155.648-86.016zM553.984 498.176c0.512-48.128 1.024-96.256 1.024-144.384 40.448-10.752 75.776-34.816 100.864-68.096 17.92 46.592 30.72 88.576 39.936 125.44-1.024 0.512-2.048 1.536-2.56 3.072-10.752 27.136-33.792 39.936-59.392 51.2-26.112 11.776-53.248 22.528-79.872 32.768zM542.72 280.064c-17.92 5.12-32.256-16.384-43.008-27.648-11.264-11.776-22.528-24.064-33.792-35.84 30.208-68.608 60.416-121.344 76.8-147.968 0.512 70.144 0 140.8 0 211.456z" fill="#B5D577" /><path d="M542.208 441.344c-27.648-0.512-51.2-22.016-71.168-39.424-19.456-16.896-37.376-35.84-53.248-56.32 11.264-36.864 24.064-71.168 36.352-100.864 2.048-5.12 4.608-10.24 6.656-15.36l43.008 46.08c10.752 11.264 23.04 20.992 38.912 17.92 0 40.448 0 80.384-0.512 120.832v27.136zM555.008 340.992v-86.528c0-60.928 0.512-122.368 0.512-183.296 40.96 74.24 71.68 141.312 94.72 200.704-22.528 33.792-56.32 57.856-95.232 69.12zM624.64 897.536c-39.424-11.264-64-30.208-73.728-38.912-0.512-25.088-0.512-50.688-0.512-75.776 0.512 0.512 1.536 0.512 3.072 0.512 101.376-0.512 212.48 18.944 292.352 86.016-100.352 46.592-175.616 40.96-221.184 28.16zM252.928 867.84c82.944-57.344 182.784-76.8 282.112-84.48 1.024 0 2.048-0.512 3.072-1.024 0 23.04 0 46.08 0.512 69.12l-2.048 2.048c-54.784 45.568-120.32 61.44-195.072 46.592-41.472-8.192-74.24-24.064-88.576-32.256zM550.4 750.08c0-36.864 1.024-74.24 1.536-111.104 5.12-1.024 9.728-2.048 14.336-3.584 8.704-2.56 17.408-6.656 26.112-9.728 2.048-0.512 4.096-1.536 6.144-2.56 15.872-6.144 31.232-12.288 47.104-18.432 24.064-9.728 53.248-17.408 74.752-32.768 1.536 61.44-8.704 91.648-8.704 92.16l-2.048 5.632 2.048 1.024c-42.496 44.544-99.84 73.728-161.28 79.36z" fill="#B5D577" /><path d="M593.408 611.84l4.608 11.264c-2.048 1.024-4.096 1.536-6.144 2.56-8.704 3.584-17.408 7.168-26.112 9.728l-3.584-11.776c10.752-3.072 20.992-7.68 31.232-11.776z" fill="#6FA22F" /></svg>