<?xml version="1.0" encoding="utf-8"?>
<!-- Uploaded to: SVG Repo, www.svgrepo.com, Generator: SVG Repo Mixer Tools -->
<svg width="800px" height="800px" viewBox="0 0 1024 1024" class="icon"  version="1.1" xmlns="http://www.w3.org/2000/svg"><path d="M998.4 504.832c0.512 3.072-0.512 6.144-3.584 8.704-19.456 15.872-38.912 34.304-60.928 46.592-19.456 10.752-43.008 17.92-64 24.576-44.032 14.336-87.552 16.896-133.12 15.872 14.336 13.312 30.72 25.088 45.056 38.4 17.92 17.408 34.816 35.84 49.152 56.32 32.256 47.616 45.568 102.912 46.08 159.744 0 6.656-5.12 10.24-10.24 10.24-59.392 8.704-120.32 14.336-171.008-23.04-36.864-27.136-48.128-70.656-72.704-105.984-2.56 46.592-12.288 93.696-23.552 138.752-11.776 46.08-35.84 87.04-68.608 121.344-2.56 6.656-10.752 10.752-16.384 4.096-18.944-24.064-47.104-37.888-67.584-60.928-17.92-19.968-27.648-44.544-31.744-70.656-4.608-28.672-3.072-61.952 3.584-93.184l-4.608 4.608c-16.384 16.896-35.328 31.744-55.808 43.52-22.016 12.8-46.08 22.016-71.68 25.6-30.72 4.608-61.952 3.072-92.16 12.288-8.704 2.56-13.824-5.12-12.8-11.776-0.512-1.536-0.512-3.072 0-4.608 9.216-48.64 19.456-98.304 42.496-142.848 19.968-38.4 49.664-69.12 84.48-93.184-44.544 1.536-90.624 2.56-132.608-7.168-50.688-11.776-88.064-46.592-126.976-78.848-1.024-1.024-2.048-2.048-2.56-3.584-1.536-2.56-1.536-6.144 1.024-9.216 27.648-35.84 68.608-57.344 112.128-68.608 38.912-10.24 80.384-16.896 121.344-20.48-28.16-16.896-52.736-43.52-66.048-69.12-25.088-50.176-31.232-112.64-35.328-167.936-1.024-10.24 10.752-12.8 17.408-7.68 1.024 0 2.048 0 3.072 0.512 45.056 12.288 91.136 24.576 130.56 50.176 33.792 22.016 62.464 51.2 91.136 79.36-3.072-40.96-1.024-82.432 7.168-122.368 11.776-60.928 50.688-108.032 84.48-158.72 5.632-8.704 17.92-4.608 19.968 3.072 0.512 0.512 1.024 1.536 1.536 2.048 45.568 81.92 84.992 169.472 89.6 263.68 28.16-31.232 58.368-59.392 98.304-76.8 45.056-19.456 94.72-25.6 143.36-29.184 2.048 0 3.584 0 5.12 1.024 5.632 1.024 9.728 5.632 7.168 12.288-17.408 47.104-33.28 96.768-59.392 140.288-17.92 29.696-43.52 53.76-71.68 74.24 88.064 7.168 179.2 24.064 247.808 82.432 2.048 1.536 3.072 4.096 3.072 6.144z m-75.264 36.864c16.896-9.216 32.256-23.04 47.616-35.84C900.096 451.584 803.84 440.32 716.8 434.688c-7.68 1.024-13.824-7.68-10.752-14.848 1.024-2.56 3.072-5.12 5.632-6.144 36.352-23.04 70.656-51.2 92.16-89.088 20.48-36.352 34.304-75.776 48.64-114.688-43.008 3.584-86.528 10.24-125.952 28.16-43.52 19.968-74.752 55.296-105.472 91.136-6.144 7.168-14.848 2.56-17.408-4.608-0.512-1.536-1.024-3.072-1.024-4.608 2.048-96.768-35.84-186.368-81.92-269.824-29.184 41.472-60.416 82.944-71.168 133.12-10.24 47.616-11.776 99.328-4.608 147.456 2.56 7.168-4.096 14.848-11.264 13.824-3.584 0-6.656-1.536-8.192-4.608-33.792-32.768-66.56-69.632-106.496-95.232-35.84-23.04-76.8-34.816-117.76-46.08 4.096 45.568 10.752 93.696 28.672 135.168 16.896 38.4 60.928 77.312 102.912 83.968 0.512 0 1.024 0 2.048 0.512 6.144 1.024 8.192 6.144 6.656 11.264-0.512 5.12-3.584 9.728-10.24 9.728-51.712 0.512-103.936 8.192-154.624 18.944-38.912 8.704-78.848 24.576-105.984 55.296 35.328 29.696 70.656 59.904 117.248 69.12 50.176 9.216 104.96 5.12 156.16 3.584 7.168 0 10.752 5.632 10.24 10.752 1.024 4.096 0 8.704-4.608 11.264-47.616 25.088-86.016 60.416-110.08 109.056-18.432 37.376-27.648 78.848-35.328 119.296 19.456-4.096 38.912-5.12 58.88-6.656 28.16-2.56 53.76-9.216 78.336-22.528 39.936-21.504 82.432-60.416 101.888-101.888 5.632-12.288 24.064-1.536 18.432 10.752-0.512 1.024-1.024 1.536-1.536 2.56 0 1.536-0.512 3.072-1.536 4.608-22.528 39.936-31.744 99.328-23.04 144.384 5.12 28.16 17.408 50.176 38.912 68.608 15.36 13.312 31.744 24.064 45.568 38.4 29.184-32.768 49.664-70.656 59.392-113.664 11.264-50.176 22.016-101.376 21.504-153.088v-3.072c0.512-4.608 3.584-7.68 7.168-8.704 3.584-1.024 7.168-1.024 10.752 2.56 32.768 31.744 40.96 82.432 73.728 113.664 45.056 43.008 104.448 39.936 161.28 31.744-2.048-51.712-15.36-100.864-46.08-143.872-14.336-20.48-32.256-38.4-50.688-55.296-18.432-16.384-39.424-30.208-54.784-50.176-1.024-1.024-1.536-2.048-1.536-3.072-2.56-5.632-0.512-12.8 6.144-14.336 2.048-1.024 4.608-1.024 7.168 0 48.128 2.048 94.72 2.048 141.312-11.776 23.552-6.144 47.616-12.8 67.584-24.064z" fill="#C25459" /><path d="M970.752 505.856c-15.36 12.8-30.72 26.624-47.616 35.84-20.48 11.264-44.032 17.92-66.048 24.576-46.592 14.336-93.184 14.336-141.312 11.776-2.56-1.024-5.12-1.024-7.168 0-6.656 1.536-8.704 8.704-6.144 14.336l1.536 3.072c15.36 19.456 36.864 33.28 54.784 50.176 18.432 16.896 35.84 34.816 50.688 55.296 30.72 43.008 44.032 91.648 46.08 143.872-56.832 7.68-116.224 10.752-161.28-31.744-32.768-31.232-40.96-81.408-73.728-113.664-3.584-3.072-7.168-3.584-10.752-2.56-3.584 1.024-6.656 3.584-7.168 8.704v3.072c0 51.712-10.24 102.4-21.504 153.088-9.728 43.008-30.208 80.896-59.392 113.664-13.824-14.336-30.72-25.088-45.568-38.4-21.504-18.432-33.28-40.448-38.912-68.608-8.704-45.056 0.512-104.96 23.04-144.384 1.024-1.536 1.536-3.072 1.536-4.608 0.512-1.024 1.024-1.536 1.536-2.56 5.632-12.288-12.288-23.04-18.432-10.752-19.456 41.472-61.952 80.384-101.888 101.888-25.088 13.312-50.176 19.968-78.336 22.528-19.968 1.536-39.424 2.56-58.88 6.656 7.68-40.96 16.896-81.92 35.328-119.296 24.064-48.64 62.976-83.968 110.08-109.056 5.12-2.56 6.144-7.168 4.608-11.264 0.512-5.632-3.072-11.264-10.24-10.752-50.688 1.536-105.984 5.632-156.16-3.584-47.104-8.704-81.92-39.424-117.248-69.12 27.136-30.208 67.072-46.592 105.984-55.296 50.176-11.264 102.912-18.432 154.624-18.944 6.144 0 9.728-4.608 10.24-9.728 1.024-4.608-0.512-9.728-6.656-11.264-0.512 0-1.024-0.512-2.048-0.512-42.496-6.656-86.528-45.568-102.912-83.968-17.92-41.472-24.576-90.112-28.672-135.168 40.96 11.264 81.92 23.04 117.76 46.08 39.424 25.6 72.704 62.464 106.496 95.232 1.536 3.584 4.608 4.608 8.192 4.608 7.168 0.512 13.824-7.168 11.264-13.824-7.168-48.128-5.632-99.84 4.608-147.456 10.752-50.688 41.984-91.648 71.168-133.12 46.08 83.456 83.968 172.544 81.92 269.824 0 1.536 0.512 3.584 1.024 4.608 2.048 7.168 11.264 11.776 17.408 4.608 30.72-35.84 61.952-70.656 105.472-91.136 39.424-17.92 82.944-24.576 125.952-28.16-14.336 38.912-28.16 78.336-48.64 114.688-21.504 37.888-55.808 66.048-92.16 89.088-3.072 1.024-5.12 3.072-5.632 6.144-2.56 7.168 3.072 15.872 10.752 14.848 85.504 5.12 181.76 16.384 252.416 70.656zM691.2 525.824c13.824 0 13.824-21.504 0-21.504h-128c18.432-19.456 36.864-38.912 54.272-58.88 14.848-16.896 31.744-33.792 43.008-53.248 6.656-11.776-11.264-22.528-18.432-10.752-11.776 19.968-29.184 37.376-44.544 54.784-16.384 18.432-32.768 36.352-50.176 53.76l-0.512 0.512c-3.584-1.536-7.68-2.048-11.776-2.56 1.536-49.152 2.048-98.304 2.048-147.456 0-13.824-21.504-13.824-21.504 0 0 48.64-0.512 96.768-1.536 145.408-34.304-35.328-69.632-70.144-105.984-103.424-10.24-9.216-25.088 5.632-14.848 14.848C430.08 430.592 465.92 465.408 500.224 501.76c-50.688-1.024-101.888-1.024-152.576-1.024-13.824 0-13.824 21.504 0 21.504 50.688 0 101.376 0.512 152.064 1.024 0 1.024 0.512 1.536 1.024 2.56-33.792 30.72-67.584 61.952-100.352 94.208-9.728 9.728 5.12 24.576 14.848 14.848 32.768-31.744 66.048-63.488 100.352-94.208v138.24c0 13.824 21.504 13.824 21.504 0V541.696h1.024c31.744 31.744 62.976 64 93.184 97.28 9.216 10.24 24.064-5.12 14.848-14.848-29.184-32.256-59.392-64-90.112-94.72l1.536-3.072c44.544-0.512 89.088-0.512 133.632-0.512z" fill="#F1A73B" /><path d="M537.6 508.928s0 0.512 0.512 1.024c0.512 1.024 0.512 5.632 0 6.656-1.024 4.608-5.632 5.12-9.728 4.096-2.56-0.512-4.608-1.536-6.656-3.072l-1.024-1.024V512c0-2.048-0.512-2.048 0.512-3.072 1.536-1.536 6.144-1.024 8.192-1.024h0.512c1.536 1.024 3.072 1.536 5.12 1.536 1.024 0 2.048 0 3.584 0.512l-1.024-1.024z" fill="#F1A73B" /><path d="M537.6 508.928v0.512c-1.024 0-2.048-0.512-3.584-0.512-2.048 0-3.584-0.512-5.12-1.536h-0.512c-2.048 0-6.144-0.512-8.192 1.024-1.024 1.024 0 1.024-0.512 3.072v4.608c0.512 0 0.512 0.512 1.024 1.024 2.048 1.536 4.096 2.56 6.656 3.072 4.096 1.024 8.704 0.512 9.728-4.096 0.512-1.024 0-5.632 0-6.656 0.512 0 0.512-0.512 0.512-0.512z m153.6-4.608c13.824 0 13.824 21.504 0 21.504h-134.144l-1.536 3.072c30.72 30.72 60.928 62.464 90.112 94.72 9.216 10.24-5.632 25.088-14.848 14.848-30.208-33.28-60.928-65.536-93.184-97.28h-1.024v137.216c0 13.824-21.504 13.824-21.504 0V540.672v-0.512c-33.792 30.72-67.072 61.952-100.352 94.208-9.728 9.728-25.088-5.632-14.848-14.848 32.768-32.256 66.56-63.488 100.352-94.208-0.512-1.024-0.512-1.536-1.024-2.56-50.688-1.024-101.376-1.024-152.064-1.024-13.824 0-13.824-21.504 0-21.504 50.688 0 101.888 0.512 152.576 1.024-34.816-35.84-70.144-70.656-107.008-104.448-10.24-9.216 5.12-24.064 14.848-14.848 36.352 33.28 71.68 68.096 105.984 103.424 1.024-48.64 2.048-96.768 1.536-145.408 0-13.824 21.504-13.824 21.504 0 0 49.152-0.512 98.304-2.048 147.456 4.096 0.512 8.192 1.024 11.776 2.56l0.512-0.512c16.896-17.408 33.792-35.84 50.176-53.76 15.36-17.408 33.28-34.816 44.544-54.784 6.656-11.776 25.088-1.024 18.432 10.752-11.264 19.456-28.16 36.352-43.008 53.248-17.408 19.968-35.84 39.424-54.272 58.88 43.52 0.512 86.016 0.512 128.512 0.512z" fill="#C25459" /></svg>